<?xml version="1.0" encoding="UTF-8" standalone="no"?>
<!-- Created with Inkscape (http://www.inkscape.org/) -->

<svg
   width="152.34293mm"
   height="152.34293mm"
   viewBox="0 0 152.34294 152.34292"
   version="1.1"
   id="svg1"
   xml:space="preserve"
   inkscape:version="1.3.2 (091e20ef0f, 2023-11-25, custom)"
   sodipodi:docname="banner.svg"
   xmlns:inkscape="http://www.inkscape.org/namespaces/inkscape"
   xmlns:sodipodi="http://sodipodi.sourceforge.net/DTD/sodipodi-0.dtd"
   xmlns="http://www.w3.org/2000/svg"
   xmlns:svg="http://www.w3.org/2000/svg"><sodipodi:namedview
     id="namedview1"
     pagecolor="#ffffff"
     bordercolor="#000000"
     borderopacity="0.25"
     inkscape:showpageshadow="2"
     inkscape:pageopacity="0.0"
     inkscape:pagecheckerboard="0"
     inkscape:deskcolor="#d1d1d1"
     inkscape:document-units="mm"
     inkscape:zoom="0.35355339"
     inkscape:cx="298.39906"
     inkscape:cy="134.35029"
     inkscape:window-width="1366"
     inkscape:window-height="724"
     inkscape:window-x="0"
     inkscape:window-y="20"
     inkscape:window-maximized="1"
     inkscape:current-layer="layer1-2" /><defs
     id="defs1"><filter
       inkscape:collect="always"
       style="color-interpolation-filters:sRGB"
       id="filter11-7"
       x="-0.0065455159"
       y="-0.0064122463"
       width="1.013091"
       height="1.0128245"><feGaussianBlur
         inkscape:collect="always"
         stdDeviation="0.053905323"
         id="feGaussianBlur11-5" /></filter><filter
       inkscape:collect="always"
       style="color-interpolation-filters:sRGB"
       id="filter12-3"
       x="-0.011739177"
       y="-0.014338238"
       width="1.0234784"
       height="1.0286765"><feGaussianBlur
         inkscape:collect="always"
         stdDeviation="0.053905323"
         id="feGaussianBlur12-5" /></filter><filter
       inkscape:collect="always"
       style="color-interpolation-filters:sRGB"
       id="filter13-6"
       x="-0.0097902134"
       y="-0.0064077491"
       width="1.0195804"
       height="1.0128155"><feGaussianBlur
         inkscape:collect="always"
         stdDeviation="0.053905323"
         id="feGaussianBlur13-2" /></filter><filter
       inkscape:collect="always"
       style="color-interpolation-filters:sRGB"
       id="filter14-9"
       x="-0.0075540629"
       y="-0.013373676"
       width="1.0151081"
       height="1.0267474"><feGaussianBlur
         inkscape:collect="always"
         stdDeviation="0.055365663"
         id="feGaussianBlur14-1" /></filter><filter
       inkscape:collect="always"
       style="color-interpolation-filters:sRGB"
       id="filter15-2"
       x="-0.038575242"
       y="-0.037512942"
       width="1.0771505"
       height="1.0750259"><feGaussianBlur
         inkscape:collect="always"
         stdDeviation="0.055365663"
         id="feGaussianBlur15-7" /></filter><filter
       inkscape:collect="always"
       style="color-interpolation-filters:sRGB"
       id="filter17-0"
       x="-0.038575242"
       y="-0.037512942"
       width="1.0771505"
       height="1.0750259"><feGaussianBlur
         inkscape:collect="always"
         stdDeviation="0.055365663"
         id="feGaussianBlur17-9" /></filter><filter
       inkscape:collect="always"
       style="color-interpolation-filters:sRGB"
       id="filter1"
       x="-0.0075542541"
       y="-0.013374015"
       width="1.0151085"
       height="1.026748"><feGaussianBlur
         inkscape:collect="always"
         stdDeviation="0.055367065"
         id="feGaussianBlur1" /></filter><filter
       inkscape:collect="always"
       style="color-interpolation-filters:sRGB"
       id="filter2"
       x="-0.038576218"
       y="-0.037513891"
       width="1.0771524"
       height="1.0750278"><feGaussianBlur
         inkscape:collect="always"
         stdDeviation="0.055367065"
         id="feGaussianBlur2" /></filter><filter
       inkscape:collect="always"
       style="color-interpolation-filters:sRGB"
       id="filter3"
       x="-0.038576218"
       y="-0.037513891"
       width="1.0771524"
       height="1.0750278"><feGaussianBlur
         inkscape:collect="always"
         stdDeviation="0.055367065"
         id="feGaussianBlur3" /></filter></defs><g
     inkscape:label="Layer 1"
     inkscape:groupmode="layer"
     id="layer1"
     transform="translate(-46.30825,-80.574768)"><circle
       style="fill:#333333;fill-opacity:1;stroke:none;stroke-width:0.154329"
       id="path12"
       cx="122.47971"
       cy="156.74623"
       r="76.171463" /><g
       inkscape:label="Layer 1"
       id="layer1-2"
       transform="translate(1124.5887,703.94746)"><text
         xml:space="preserve"
         style="font-style:normal;font-variant:normal;font-weight:normal;font-stretch:normal;font-size:9.02332px;font-family:'DejaVu Sans';-inkscape-font-specification:'DejaVu Sans';mix-blend-mode:normal;fill:#999999;fill-opacity:1;stroke:none;stroke-width:0.02707"
         x="-1044.9432"
         y="-526.68933"
         id="text12"><tspan
           sodipodi:role="line"
           id="tspan12"
           style="font-style:normal;font-variant:normal;font-weight:bold;font-stretch:normal;font-family:'DejaVu Sans';-inkscape-font-specification:'DejaVu Sans Bold';fill:#85d2c5;fill-opacity:1;stroke:none;stroke-width:0.02707"
           x="-1044.9432"
           y="-526.68933">WebCraft  Group</tspan></text><text
         xml:space="preserve"
         style="font-weight:bold;font-size:88.1944px;font-family:'DejaVu Sans';-inkscape-font-specification:'DejaVu Sans Bold';fill:#666666;stroke:#666666;stroke-width:0.264583"
         x="-987.57458"
         y="-522.90442"
         id="text3"><tspan
           sodipodi:role="line"
           id="tspan3"
           style="stroke-width:0.264583"
           x="-987.57458"
           y="-522.90442" /></text><text
         xml:space="preserve"
         style="font-weight:bold;font-size:9.02332px;font-family:'DejaVu Sans';-inkscape-font-specification:'DejaVu Sans Bold';fill:#666666;stroke:none;stroke-width:0.264583"
         x="-1063.527"
         y="-516.09326"
         id="text4"><tspan
           sodipodi:role="line"
           id="tspan4"
           style="font-size:9.02332px;fill:#7dfcb7;fill-opacity:1;stroke-width:0.264583;stroke:none"
           x="-1063.527"
           y="-516.09326">Web-Sites Development</tspan></text><path
         style="mix-blend-mode:normal;fill:#7dfcb7;fill-opacity:1;stroke:none;stroke-width:0.20713;paint-order:stroke fill markers;filter:url(#filter11-7)"
         d="m -1130.4911,-571.49235 1.1326,-2.16788 -4.4871,-9.02835 h -6.5848 l 9.8825,20.17589 9.8826,-20.15966 -3.2816,2.00029 -6.5523,13.59656 -6.6001,-13.6166 h 1.9114 z"
         id="path1-6"
         transform="matrix(2.2608962,0,0,2.2608962,1525.9213,735.76264)" /><path
         style="mix-blend-mode:normal;fill:#7dfcb7;fill-opacity:1;stroke:none;stroke-width:0.20713;paint-order:stroke fill markers;filter:url(#filter12-3)"
         d="m -1127.2609,-573.67645 -4.4277,-9.02292 h 11.0206 l -0.01,0.0444 -3.0904,1.98781 h -4.7302 l 2.3517,4.76348 z"
         id="path2-7"
         sodipodi:nodetypes="cccccccc"
         transform="matrix(2.2608962,0,0,2.2608962,1525.9213,735.76264)" /><path
         style="mix-blend-mode:normal;fill:#7dfcb7;fill-opacity:1;stroke:none;stroke-width:0.20713;paint-order:stroke fill markers;filter:url(#filter13-6)"
         d="m -1121.8771,-571.54808 4.6825,-9.16723 h 2.0057 l -6.6729,13.63219 -2.1025,-4.39615 -1.1927,2.35479 3.2646,6.62866 9.9499,-20.19005 h -6.5928 l -4.4581,9.08877 z"
         id="path3-9"
         transform="matrix(2.2608962,0,0,2.2608962,1525.9213,735.76264)" /><path
         style="mix-blend-mode:normal;fill:#5ec7e5;fill-opacity:1;stroke:none;stroke-width:0.20713;paint-order:stroke fill markers;filter:url(#filter1)"
         d="m 87.990031,153.64636 1.334134,-1.34751 c 0,0 -1.297979,-0.42171 -1.882139,-0.73026 -0.590688,-0.312 -1.618834,-0.67443 -2.27164,-0.67443 -1.140684,0 -1.575865,-0.082 -2.383042,0.1343 -0.84515,0.22646 -1.3034,0.35398 -2.031737,0.83885 -0.6259,0.41668 -0.993737,0.70753 -1.450679,1.30468 -0.473956,0.61942 -1.034482,1.9192 -1.034482,1.9192 h -2.07247 c 0,0 0.618928,-1.67574 1.124491,-2.40035 0.600692,-0.86095 1.35653,-1.53998 2.207831,-2.15428 0.684858,-0.4942 1.406167,-0.83282 2.209533,-1.09331 0.668768,-0.21687 1.468769,-0.34894 2.171325,-0.37464 0.864674,-0.0316 1.67882,7.6e-4 2.515381,0.22173 0.902142,0.2383 1.784605,0.6151 2.576542,1.10859 0.437449,0.2726 1.213148,0.95659 1.213148,0.95659 l 1.416413,-1.17857 c 0,0 -1.181247,-1.09307 -1.857376,-1.52119 -0.643377,-0.40738 -1.346636,-0.72392 -2.064284,-0.97864 -0.627953,-0.22286 -1.280206,-0.39608 -1.941966,-0.47401 -0.992169,-0.11693 -2.009895,-0.13888 -2.997032,0.0148 -0.976447,0.15202 -1.926857,0.48317 -2.828831,0.88688 -0.617541,0.27638 -1.208544,0.62516 -1.743179,1.03979 -0.72055,0.5588 -1.383955,1.20548 -1.941966,1.92667 -0.631799,0.81653 -1.169929,1.71988 -1.559683,2.67591 -0.30755,0.75439 -0.496204,1.56164 -0.596348,2.37011 -0.03439,0.27822 -0.05955,0.9275 -0.05955,0.9275 l 5.852982,-0.0216 c 0,0 0.367658,-2.10171 0.997359,-2.91162 0.529925,-0.68158 1.211124,-1.16108 2.167783,-1.41742 0.635075,-0.17013 1.635489,-0.22417 2.319941,-0.0413 0.921872,0.2464 2.609467,0.99347 2.609467,0.99347 z"
         id="path4-0"
         sodipodi:nodetypes="ccsssssccssssssccsssssssssccasscc"
         transform="matrix(2.2608962,0,0,2.1430926,-1159.9161,-897.05029)" /><path
         style="mix-blend-mode:normal;fill:#5ec7e5;fill-opacity:1;stroke:none;stroke-width:0.20713;paint-order:stroke fill markers;filter:url(#filter2)"
         d="m 87.143797,151.77548 2.09761,-2.06519 1.347024,1.34705 -2.195127,2.19513 z"
         id="path5-6"
         transform="matrix(2.2608962,0,0,2.1430926,-1159.9161,-897.05029)" /><path
         style="mix-blend-mode:normal;fill:#5ec7e5;fill-opacity:1;stroke:none;stroke-width:0.20713;paint-order:stroke fill markers;filter:url(#filter3)"
         d="m 87.143797,151.77548 2.09761,-2.06519 1.347024,1.34705 -2.195127,2.19513 z"
         id="path7-2"
         transform="matrix(2.2608962,0,0,2.1430926,-1159.9161,-897.05029)" /><path
         style="mix-blend-mode:normal;fill:#5ec7e5;fill-opacity:1;stroke:none;stroke-width:0.20713;paint-order:stroke fill markers;filter:url(#filter14-9)"
         d="m 87.990031,153.64636 1.334134,-1.34751 c 0,0 -1.297979,-0.42171 -1.882139,-0.73026 -0.590688,-0.312 -1.618834,-0.67443 -2.27164,-0.67443 -1.140684,0 -1.575865,-0.082 -2.383042,0.1343 -0.84515,0.22646 -1.3034,0.35398 -2.031737,0.83885 -0.6259,0.41668 -0.993737,0.70753 -1.450679,1.30468 -0.473956,0.61942 -1.034482,1.9192 -1.034482,1.9192 h -2.07247 c 0,0 0.618928,-1.67574 1.124491,-2.40035 0.600692,-0.86095 1.35653,-1.53998 2.207831,-2.15428 0.684858,-0.4942 1.406167,-0.83282 2.209533,-1.09331 0.668768,-0.21687 1.468769,-0.34894 2.171325,-0.37464 0.864674,-0.0316 1.67882,7.6e-4 2.515381,0.22173 0.902142,0.2383 1.784605,0.6151 2.576542,1.10859 0.437449,0.2726 1.213148,0.95659 1.213148,0.95659 l 1.416413,-1.17857 c 0,0 -1.181247,-1.09307 -1.857376,-1.52119 -0.643377,-0.40738 -1.346636,-0.72392 -2.064284,-0.97864 -0.627953,-0.22286 -1.280206,-0.39608 -1.941966,-0.47401 -0.992169,-0.11693 -2.009895,-0.13888 -2.997032,0.0148 -0.976447,0.15202 -1.926857,0.48317 -2.828831,0.88688 -0.617541,0.27638 -1.208544,0.62516 -1.743179,1.03979 -0.72055,0.5588 -1.383955,1.20548 -1.941966,1.92667 -0.631799,0.81653 -1.169929,1.71988 -1.559683,2.67591 -0.30755,0.75439 -0.496204,1.56164 -0.596348,2.37011 -0.03439,0.27822 -0.05955,0.9275 -0.05955,0.9275 l 5.852982,-0.0216 c 0,0 0.367658,-2.10171 0.997359,-2.91162 0.529925,-0.68158 1.211124,-1.16108 2.167783,-1.41742 0.635075,-0.17013 1.635489,-0.22417 2.319941,-0.0413 0.921872,0.2464 2.609467,0.99347 2.609467,0.99347 z"
         id="path20"
         sodipodi:nodetypes="ccsssssccssssssccsssssssssccasscc"
         transform="matrix(2.2606243,0,0,-2.1434589,-1159.8405,-220.46891)" /><path
         style="mix-blend-mode:normal;fill:#5ec7e5;fill-opacity:1;stroke:none;stroke-width:0.20713;paint-order:stroke fill markers;filter:url(#filter15-2)"
         d="m 87.143797,151.77548 2.09761,-2.06519 1.347024,1.34705 -2.195127,2.19513 z"
         id="path21"
         transform="matrix(2.2606243,0,0,-2.1434589,-1159.8405,-220.46891)" /><path
         style="mix-blend-mode:normal;fill:#5ec7e5;fill-opacity:1;stroke:none;stroke-width:0.20713;paint-order:stroke fill markers;filter:url(#filter17-0)"
         d="m 87.143797,151.77548 2.09761,-2.06519 1.347024,1.34705 -2.195127,2.19513 z"
         id="path22"
         transform="matrix(2.2606243,0,0,-2.1434589,-1159.8405,-220.46891)" /></g></g></svg>
