<?xml version="1.0" encoding="UTF-8" standalone="no"?>
<!-- Created with Inkscape (http://www.inkscape.org/) -->

<svg
   width="47.227406mm"
   height="30.365137mm"
   viewBox="0 0 47.227407 30.365137"
   version="1.1"
   id="svg1"
   xml:space="preserve"
   inkscape:version="1.3.2 (091e20ef0f, 2023-11-25, custom)"
   sodipodi:docname="logo.svg"
   xmlns:inkscape="http://www.inkscape.org/namespaces/inkscape"
   xmlns:sodipodi="http://sodipodi.sourceforge.net/DTD/sodipodi-0.dtd"
   xmlns="http://www.w3.org/2000/svg"
   xmlns:svg="http://www.w3.org/2000/svg"><sodipodi:namedview
     id="namedview1"
     pagecolor="#ffffff"
     bordercolor="#000000"
     borderopacity="0.25"
     inkscape:showpageshadow="2"
     inkscape:pageopacity="0.0"
     inkscape:pagecheckerboard="0"
     inkscape:deskcolor="#d1d1d1"
     inkscape:document-units="mm"
     inkscape:zoom="2.8284271"
     inkscape:cx="59.220193"
     inkscape:cy="75.483649"
     inkscape:window-width="1366"
     inkscape:window-height="724"
     inkscape:window-x="0"
     inkscape:window-y="20"
     inkscape:window-maximized="1"
     inkscape:current-layer="layer1" /><defs
     id="defs1"><filter
       inkscape:collect="always"
       style="color-interpolation-filters:sRGB"
       id="filter146"
       x="-0.00088686936"
       y="-0.0059859488"
       width="1.0017737"
       height="1.0119719"><feGaussianBlur
         inkscape:collect="always"
         stdDeviation="0.017417565"
         id="feGaussianBlur146" /></filter><filter
       inkscape:collect="always"
       style="color-interpolation-filters:sRGB"
       id="filter11"
       x="-0.00076140567"
       y="-0.00074590017"
       width="1.0015228"
       height="1.0014918"><feGaussianBlur
         inkscape:collect="always"
         stdDeviation="0.0062704999"
         id="feGaussianBlur11" /></filter><filter
       inkscape:collect="always"
       style="color-interpolation-filters:sRGB"
       id="filter12"
       x="-0.001365562"
       y="-0.0016678858"
       width="1.0027311"
       height="1.0033358"><feGaussianBlur
         inkscape:collect="always"
         stdDeviation="0.0062704999"
         id="feGaussianBlur12" /></filter><filter
       inkscape:collect="always"
       style="color-interpolation-filters:sRGB"
       id="filter13"
       x="-0.0011388338"
       y="-0.00074537704"
       width="1.0022777"
       height="1.0014908"><feGaussianBlur
         inkscape:collect="always"
         stdDeviation="0.0062704999"
         id="feGaussianBlur13" /></filter><filter
       inkscape:collect="always"
       style="color-interpolation-filters:sRGB"
       id="filter14"
       x="-0.00087872124"
       y="-0.0015556838"
       width="1.0017574"
       height="1.0031114"><feGaussianBlur
         inkscape:collect="always"
         stdDeviation="0.006440373"
         id="feGaussianBlur14" /></filter><filter
       inkscape:collect="always"
       style="color-interpolation-filters:sRGB"
       id="filter15"
       x="-0.0044872389"
       y="-0.0043636674"
       width="1.0089745"
       height="1.0087273"><feGaussianBlur
         inkscape:collect="always"
         stdDeviation="0.006440373"
         id="feGaussianBlur15" /></filter><filter
       inkscape:collect="always"
       style="color-interpolation-filters:sRGB"
       id="filter17"
       x="-0.0044872389"
       y="-0.0043636674"
       width="1.0089745"
       height="1.0087273"><feGaussianBlur
         inkscape:collect="always"
         stdDeviation="0.006440373"
         id="feGaussianBlur17" /></filter><filter
       inkscape:collect="always"
       style="color-interpolation-filters:sRGB"
       id="filter22"
       x="-0.00087874348"
       y="-0.0015557232"
       width="1.0017575"
       height="1.0031114"><feGaussianBlur
         inkscape:collect="always"
         stdDeviation="0.006440536"
         id="feGaussianBlur22" /></filter><filter
       inkscape:collect="always"
       style="color-interpolation-filters:sRGB"
       id="filter23"
       x="-0.0044873524"
       y="-0.0043637779"
       width="1.0089747"
       height="1.0087276"><feGaussianBlur
         inkscape:collect="always"
         stdDeviation="0.006440536"
         id="feGaussianBlur23" /></filter><filter
       inkscape:collect="always"
       style="color-interpolation-filters:sRGB"
       id="filter24"
       x="-0.0044873524"
       y="-0.0043637779"
       width="1.0089747"
       height="1.0087276"><feGaussianBlur
         inkscape:collect="always"
         stdDeviation="0.006440536"
         id="feGaussianBlur24" /></filter><filter
       inkscape:collect="always"
       style="color-interpolation-filters:sRGB"
       id="filter25"
       x="-0.0012061513"
       y="-0.008140951"
       width="1.0024123"
       height="1.016282"><feGaussianBlur
         inkscape:collect="always"
         stdDeviation="0.0062704999"
         id="feGaussianBlur25" /></filter></defs><g
     inkscape:label="Layer 1"
     inkscape:groupmode="layer"
     id="layer1"
     transform="translate(-46.15867,-147.06721)"><path
       style="mix-blend-mode:normal;fill:#7dfcb7;fill-opacity:1;stroke:none;stroke-width:0.20713;paint-order:stroke fill markers;filter:url(#filter11)"
       d="m 57.461394,158.36777 1.132591,-2.16788 -4.487124,-9.02835 h -6.584738 l 9.882513,20.17589 9.882509,-20.15966 -3.281556,2.00029 -6.552295,13.59656 -6.60012,-13.6166 h 1.911379 z"
       id="path1" /><path
       style="mix-blend-mode:normal;fill:#7dfcb7;fill-opacity:1;stroke:none;stroke-width:0.20713;paint-order:stroke fill markers;filter:url(#filter12)"
       d="m 60.691593,156.18367 -4.427665,-9.02292 h 11.020517 l -0.0055,0.0444 -3.09037,1.98781 h -4.730166 l 2.351675,4.76348 z"
       id="path2"
       sodipodi:nodetypes="cccccccc" /><path
       style="mix-blend-mode:normal;fill:#7dfcb7;fill-opacity:1;stroke:none;stroke-width:0.20713;paint-order:stroke fill markers;filter:url(#filter13)"
       d="m 66.075364,158.31204 4.682546,-9.16723 h 2.005696 l -6.672947,13.63219 -2.10251,-4.39615 -1.192695,2.35479 3.264616,6.62866 9.949955,-20.19005 h -6.592851 l -4.458051,9.08877 z"
       id="path3" /><path
       style="mix-blend-mode:normal;fill:#5ec7e5;fill-opacity:1;stroke:none;stroke-width:0.20713;paint-order:stroke fill markers;filter:url(#filter22)"
       d="m 87.990031,153.64636 1.334134,-1.34751 c 0,0 -1.297979,-0.42171 -1.882139,-0.73026 -0.590688,-0.312 -1.618834,-0.67443 -2.27164,-0.67443 -1.140684,0 -1.575865,-0.082 -2.383042,0.1343 -0.84515,0.22646 -1.3034,0.35398 -2.031737,0.83885 -0.6259,0.41668 -0.993737,0.70753 -1.450679,1.30468 -0.473956,0.61942 -1.034482,1.9192 -1.034482,1.9192 h -2.07247 c 0,0 0.618928,-1.67574 1.124491,-2.40035 0.600692,-0.86095 1.35653,-1.53998 2.207831,-2.15428 0.684858,-0.4942 1.406167,-0.83282 2.209533,-1.09331 0.668768,-0.21687 1.468769,-0.34894 2.171325,-0.37464 0.864674,-0.0316 1.67882,7.6e-4 2.515381,0.22173 0.902142,0.2383 1.784605,0.6151 2.576542,1.10859 0.437449,0.2726 1.213148,0.95659 1.213148,0.95659 l 1.416413,-1.17857 c 0,0 -1.181247,-1.09307 -1.857376,-1.52119 -0.643377,-0.40738 -1.346636,-0.72392 -2.064284,-0.97864 -0.627953,-0.22286 -1.280206,-0.39608 -1.941966,-0.47401 -0.992169,-0.11693 -2.009895,-0.13888 -2.997032,0.0148 -0.976447,0.15202 -1.926857,0.48317 -2.828831,0.88688 -0.617541,0.27638 -1.208544,0.62516 -1.743179,1.03979 -0.72055,0.5588 -1.383955,1.20548 -1.941966,1.92667 -0.631799,0.81653 -1.169929,1.71988 -1.559683,2.67591 -0.30755,0.75439 -0.496204,1.56164 -0.596348,2.37011 -0.03439,0.27822 -0.05955,0.9275 -0.05955,0.9275 l 5.852982,-0.0216 c 0,0 0.367658,-2.10171 0.997359,-2.91162 0.529925,-0.68158 1.211124,-1.16108 2.167783,-1.41742 0.635075,-0.17013 1.635489,-0.22417 2.319941,-0.0413 0.921872,0.2464 2.609467,0.99347 2.609467,0.99347 z"
       id="path4"
       sodipodi:nodetypes="ccsssssccssssssccsssssssssccasscc"
       transform="matrix(1,0,0,0.94789517,0,7.6629118)" /><path
       style="mix-blend-mode:normal;fill:#5ec7e5;fill-opacity:1;stroke:none;stroke-width:0.20713;paint-order:stroke fill markers;filter:url(#filter23)"
       d="m 87.143797,151.77548 2.09761,-2.06519 1.347024,1.34705 -2.195127,2.19513 z"
       id="path5"
       transform="matrix(1,0,0,0.94789517,0,7.6629118)" /><path
       style="mix-blend-mode:normal;fill:#5ec7e5;fill-opacity:1;stroke:none;stroke-width:0.20713;paint-order:stroke fill markers;filter:url(#filter24)"
       d="m 87.143797,151.77548 2.09761,-2.06519 1.347024,1.34705 -2.195127,2.19513 z"
       id="path7"
       transform="matrix(1,0,0,0.94789517,0,7.6629118)" /><g
       inkscape:label="Layer 1"
       id="layer1-2"
       transform="translate(1124.5887,703.94746)"
       style="filter:url(#filter25)"><text
         xml:space="preserve"
         style="font-style:normal;font-variant:normal;font-weight:normal;font-stretch:normal;font-size:9.02332px;font-family:'DejaVu Sans';-inkscape-font-specification:'DejaVu Sans';mix-blend-mode:normal;fill:#999999;fill-opacity:1;stroke:#0000ff;stroke-width:0.02707;filter:url(#filter146)"
         x="-1078.6523"
         y="-526.68933"
         id="text12"><tspan
           sodipodi:role="line"
           id="tspan12"
           style="font-style:normal;font-variant:normal;font-weight:bold;font-stretch:normal;font-family:'DejaVu Sans';-inkscape-font-specification:'DejaVu Sans Bold';stroke:none;stroke-width:0.02707"
           x="-1078.6523"
           y="-526.68933"><tspan
             style="fill:#5ec7e5;fill-opacity:1;stroke:none;stroke-width:0.02707"
             id="tspan13">Web</tspan><tspan
             style="fill:#7dfcb7;fill-opacity:1;stroke:none;stroke-width:0.02707"
             id="tspan14">Craft</tspan></tspan></text></g><path
       style="mix-blend-mode:normal;fill:#5ec7e5;fill-opacity:1;stroke:none;stroke-width:0.20713;paint-order:stroke fill markers;filter:url(#filter14)"
       d="m 87.990031,153.64636 1.334134,-1.34751 c 0,0 -1.297979,-0.42171 -1.882139,-0.73026 -0.590688,-0.312 -1.618834,-0.67443 -2.27164,-0.67443 -1.140684,0 -1.575865,-0.082 -2.383042,0.1343 -0.84515,0.22646 -1.3034,0.35398 -2.031737,0.83885 -0.6259,0.41668 -0.993737,0.70753 -1.450679,1.30468 -0.473956,0.61942 -1.034482,1.9192 -1.034482,1.9192 h -2.07247 c 0,0 0.618928,-1.67574 1.124491,-2.40035 0.600692,-0.86095 1.35653,-1.53998 2.207831,-2.15428 0.684858,-0.4942 1.406167,-0.83282 2.209533,-1.09331 0.668768,-0.21687 1.468769,-0.34894 2.171325,-0.37464 0.864674,-0.0316 1.67882,7.6e-4 2.515381,0.22173 0.902142,0.2383 1.784605,0.6151 2.576542,1.10859 0.437449,0.2726 1.213148,0.95659 1.213148,0.95659 l 1.416413,-1.17857 c 0,0 -1.181247,-1.09307 -1.857376,-1.52119 -0.643377,-0.40738 -1.346636,-0.72392 -2.064284,-0.97864 -0.627953,-0.22286 -1.280206,-0.39608 -1.941966,-0.47401 -0.992169,-0.11693 -2.009895,-0.13888 -2.997032,0.0148 -0.976447,0.15202 -1.926857,0.48317 -2.828831,0.88688 -0.617541,0.27638 -1.208544,0.62516 -1.743179,1.03979 -0.72055,0.5588 -1.383955,1.20548 -1.941966,1.92667 -0.631799,0.81653 -1.169929,1.71988 -1.559683,2.67591 -0.30755,0.75439 -0.496204,1.56164 -0.596348,2.37011 -0.03439,0.27822 -0.05955,0.9275 -0.05955,0.9275 l 5.852982,-0.0216 c 0,0 0.367658,-2.10171 0.997359,-2.91162 0.529925,-0.68158 1.211124,-1.16108 2.167783,-1.41742 0.635075,-0.17013 1.635489,-0.22417 2.319941,-0.0413 0.921872,0.2464 2.609467,0.99347 2.609467,0.99347 z"
       id="path20"
       sodipodi:nodetypes="ccsssssccssssssccsssssssssccasscc"
       transform="matrix(0.99987973,0,0,-0.94805717,0.03336882,306.91653)" /><path
       style="mix-blend-mode:normal;fill:#5ec7e5;fill-opacity:1;stroke:none;stroke-width:0.20713;paint-order:stroke fill markers;filter:url(#filter15)"
       d="m 87.143797,151.77548 2.09761,-2.06519 1.347024,1.34705 -2.195127,2.19513 z"
       id="path21"
       transform="matrix(0.99987973,0,0,-0.94805717,0.03336882,306.91653)" /><path
       style="mix-blend-mode:normal;fill:#5ec7e5;fill-opacity:1;stroke:none;stroke-width:0.20713;paint-order:stroke fill markers;filter:url(#filter17)"
       d="m 87.143797,151.77548 2.09761,-2.06519 1.347024,1.34705 -2.195127,2.19513 z"
       id="path22"
       transform="matrix(0.99987973,0,0,-0.94805717,0.03336882,306.91653)" /></g></svg>
