<?xml version="1.0" encoding="UTF-8" standalone="no"?>
<!-- Created with Inkscape (http://www.inkscape.org/) -->

<svg
   width="736.02441mm"
   height="429.0708mm"
   viewBox="0 0 736.02444 429.0708"
   version="1.1"
   id="svg1"
   inkscape:version="1.3.2 (091e20ef0f, 2023-11-25, custom)"
   sodipodi:docname="banner.svg"
   xml:space="preserve"
   xmlns:inkscape="http://www.inkscape.org/namespaces/inkscape"
   xmlns:sodipodi="http://sodipodi.sourceforge.net/DTD/sodipodi-0.dtd"
   xmlns="http://www.w3.org/2000/svg"
   xmlns:svg="http://www.w3.org/2000/svg"><sodipodi:namedview
     id="namedview1"
     pagecolor="#ffffff"
     bordercolor="#000000"
     borderopacity="0.25"
     inkscape:showpageshadow="2"
     inkscape:pageopacity="0.0"
     inkscape:pagecheckerboard="0"
     inkscape:deskcolor="#d1d1d1"
     inkscape:document-units="mm"
     inkscape:zoom="0.060912072"
     inkscape:cx="533.55597"
     inkscape:cy="2405.1061"
     inkscape:window-width="1366"
     inkscape:window-height="724"
     inkscape:window-x="0"
     inkscape:window-y="20"
     inkscape:window-maximized="1"
     inkscape:current-layer="layer1" /><defs
     id="defs1" /><g
     inkscape:label="Layer 1"
     inkscape:groupmode="layer"
     id="layer1"
     transform="translate(-475.02218,665.1446)"><path
       style="fill:#7dfcb7;fill-opacity:0.9;stroke-width:0.264583"
       d="m 878.98554,-236.07381 c 0,0 13.27497,-21.56764 16.28883,-33.66362 2.32079,-9.31438 3.65465,-19.52789 1.08593,-28.77696 -4.75762,-17.13052 -18.74827,-33.5529 -29.20833,-44.62825 -11.07742,-11.72903 -21.91558,-19.29156 -35.4041,-23.7849 -26.65051,-8.87791 -57.56416,4.69964 -84.15901,-4.34369 -20.81834,-7.07909 -38.51706,-22.14977 -54.29616,-37.46437 -18.85868,-18.3035 -25.62759,-47.81519 -46.69467,-63.52651 -18.03533,-13.45031 -41.24509,-19.68626 -63.5265,-22.80438 -21.55662,-3.01669 -43.74332,0.4307 -65.15537,4.34369 -14.6998,2.68634 -42.89398,13.03107 -42.89398,13.03107 v 241.07496 z"
       id="path3"
       sodipodi:nodetypes="csssssssssccc" /><path
       style="fill:#5ec7e5;fill-opacity:0.9;stroke-width:0.227096"
       d="m 821.75091,-236.07381 c 0,0 11.39413,-18.51188 13.98098,-28.89407 1.99198,-7.99469 3.13685,-16.76113 0.93207,-24.69975 -4.08355,-14.70343 -16.09196,-28.79904 -25.07001,-38.3052 -9.50795,-10.06724 -18.81052,-16.55829 -30.38795,-20.41499 -22.87459,-7.62007 -49.40831,4.03377 -72.23513,-3.72827 -17.86874,-6.07611 -33.05986,-19.01153 -46.60333,-32.15632 -16.18674,-15.71021 -21.99661,-41.0406 -40.07884,-54.52589 -15.48004,-11.54464 -35.40138,-16.89707 -54.5259,-19.5734 -18.50242,-2.58928 -37.54565,0.36967 -55.92398,3.72826 -12.61709,2.30574 -36.81664,11.1848 -36.81664,11.1848 v 206.9188 z"
       id="path4"
       sodipodi:nodetypes="csssssssssccc" /><path
       style="fill:#7dfcb7;fill-opacity:0.9;stroke-width:0.264583"
       d="m 807.0832,-665.1446 c 0,0 -13.27497,21.56764 -16.28883,33.66362 -2.32079,9.31438 -3.65465,19.52789 -1.08593,28.77696 4.75762,17.13052 18.74827,33.5529 29.20833,44.62825 11.07742,11.72903 21.91558,19.29156 35.4041,23.7849 26.65051,8.87791 57.56416,-4.69964 84.15901,4.34369 20.81834,7.07909 38.51706,22.14977 54.29616,37.46437 18.85866,18.3035 25.62756,47.81519 46.69466,63.52651 18.0353,13.45031 41.2451,19.68626 63.5265,22.80438 21.5566,3.01669 43.7433,-0.4307 65.1554,-4.34369 14.6998,-2.68634 42.894,-13.03107 42.894,-13.03107 v -241.07496 z"
       id="path5"
       sodipodi:nodetypes="csssssssssccc" /><path
       style="fill:#5ec7e5;fill-opacity:0.9;stroke-width:0.227096"
       d="m 864.31783,-665.1446 c 0,0 -11.39413,18.51188 -13.98098,28.89407 -1.99198,7.99469 -3.13685,16.76113 -0.93207,24.69975 4.08355,14.70343 16.09196,28.79904 25.07001,38.3052 9.50795,10.06724 18.81052,16.55829 30.38795,20.41499 22.87459,7.62007 49.40831,-4.03377 72.23513,3.72827 17.86874,6.07611 33.05983,19.01153 46.60333,32.15632 16.1867,15.71021 21.9966,41.0406 40.0788,54.52589 15.4801,11.54464 35.4014,16.89707 54.5259,19.5734 18.5025,2.58928 37.5457,-0.36967 55.924,-3.72826 12.6171,-2.30574 36.8167,-11.1848 36.8167,-11.1848 v -206.9188 z"
       id="path6"
       sodipodi:nodetypes="csssssssssccc" /></g></svg>
