<?xml version="1.0" encoding="UTF-8" standalone="no"?>
<!-- Created with Inkscape (http://www.inkscape.org/) -->

<svg
   width="297.54294mm"
   height="93.389397mm"
   viewBox="0 0 297.54294 93.389397"
   version="1.1"
   id="svg1"
   xml:space="preserve"
   inkscape:version="1.3.2 (091e20ef0f, 2023-11-25, custom)"
   sodipodi:docname="services_big_banner.svg"
   xmlns:inkscape="http://www.inkscape.org/namespaces/inkscape"
   xmlns:sodipodi="http://sodipodi.sourceforge.net/DTD/sodipodi-0.dtd"
   xmlns="http://www.w3.org/2000/svg"
   xmlns:svg="http://www.w3.org/2000/svg"><sodipodi:namedview
     id="namedview1"
     pagecolor="#ffffff"
     bordercolor="#000000"
     borderopacity="0.25"
     inkscape:showpageshadow="2"
     inkscape:pageopacity="0.0"
     inkscape:pagecheckerboard="0"
     inkscape:deskcolor="#d1d1d1"
     inkscape:document-units="mm"
     inkscape:zoom="0.48729658"
     inkscape:cx="512.00852"
     inkscape:cy="109.7894"
     inkscape:window-width="1366"
     inkscape:window-height="724"
     inkscape:window-x="0"
     inkscape:window-y="332"
     inkscape:window-maximized="1"
     inkscape:current-layer="layer1-2-8" /><defs
     id="defs1"><filter
       inkscape:collect="always"
       style="color-interpolation-filters:sRGB"
       id="filter11-7"
       x="-0.0017615158"
       y="-0.0017256436"
       width="1.003523"
       height="1.0034513"><feGaussianBlur
         inkscape:collect="always"
         stdDeviation="0.014506832"
         id="feGaussianBlur11-5" /></filter><filter
       inkscape:collect="always"
       style="color-interpolation-filters:sRGB"
       id="filter12-3"
       x="-0.0031592347"
       y="-0.0038586617"
       width="1.0063185"
       height="1.0077173"><feGaussianBlur
         inkscape:collect="always"
         stdDeviation="0.014506832"
         id="feGaussianBlur12-5" /></filter><filter
       inkscape:collect="always"
       style="color-interpolation-filters:sRGB"
       id="filter13-6"
       x="-0.0026346976"
       y="-0.0017244334"
       width="1.0052694"
       height="1.0034489"><feGaussianBlur
         inkscape:collect="always"
         stdDeviation="0.014506832"
         id="feGaussianBlur13-2" /></filter><filter
       inkscape:collect="always"
       style="color-interpolation-filters:sRGB"
       id="filter14-9"
       x="-0.0020329258"
       y="-0.003599082"
       width="1.0040659"
       height="1.0071982"><feGaussianBlur
         inkscape:collect="always"
         stdDeviation="0.014899834"
         id="feGaussianBlur14-1" /></filter><filter
       inkscape:collect="always"
       style="color-interpolation-filters:sRGB"
       id="filter15-2"
       x="-0.010381249"
       y="-0.010095365"
       width="1.0207625"
       height="1.0201907"><feGaussianBlur
         inkscape:collect="always"
         stdDeviation="0.014899834"
         id="feGaussianBlur15-7" /></filter><filter
       inkscape:collect="always"
       style="color-interpolation-filters:sRGB"
       id="filter17-0"
       x="-0.010381249"
       y="-0.010095365"
       width="1.0207625"
       height="1.0201907"><feGaussianBlur
         inkscape:collect="always"
         stdDeviation="0.014899834"
         id="feGaussianBlur17-9" /></filter><filter
       inkscape:collect="always"
       style="color-interpolation-filters:sRGB"
       id="filter1"
       x="-0.0020329773"
       y="-0.0035991731"
       width="1.004066"
       height="1.0071983"><feGaussianBlur
         inkscape:collect="always"
         stdDeviation="0.014900211"
         id="feGaussianBlur1" /></filter><filter
       inkscape:collect="always"
       style="color-interpolation-filters:sRGB"
       id="filter2"
       x="-0.010381511"
       y="-0.010095621"
       width="1.020763"
       height="1.0201912"><feGaussianBlur
         inkscape:collect="always"
         stdDeviation="0.014900211"
         id="feGaussianBlur2" /></filter><filter
       inkscape:collect="always"
       style="color-interpolation-filters:sRGB"
       id="filter3"
       x="-0.010381511"
       y="-0.010095621"
       width="1.020763"
       height="1.0201912"><feGaussianBlur
         inkscape:collect="always"
         stdDeviation="0.014900211"
         id="feGaussianBlur3" /></filter></defs><g
     inkscape:label="Layer 1"
     inkscape:groupmode="layer"
     id="layer1"
     transform="translate(19.546618,-85.244971)"><path
       style="fill:#333333;stroke-width:0.264583"
       d="M -19.546618,178.5892 V 85.244971 H 277.99633 v 93.389399 c 0,0 -38.23728,-52.77642 -149.31443,-52.77642 -103.66115,0 -148.228518,52.73125 -148.228518,52.73125 z"
       id="path1"
       sodipodi:nodetypes="ccccsc" /><g
       inkscape:label="Layer 1"
       id="layer1-5"
       transform="translate(-58.449372,-88.905843)"><path
         style="mix-blend-mode:normal;fill:#7dfcb7;fill-opacity:1;stroke:none;stroke-width:0.20713;paint-order:stroke fill markers;filter:url(#filter11-7)"
         d="m 60.440679,196.06626 1.132591,-2.16788 -4.487124,-9.02835 h -6.584738 l 9.882513,20.17589 9.882508,-20.15966 -3.281555,2.00029 -6.552295,13.59656 -6.60012,-13.6166 h 1.911379 z"
         id="path1-6" /><path
         style="mix-blend-mode:normal;fill:#7dfcb7;fill-opacity:1;stroke:none;stroke-width:0.20713;paint-order:stroke fill markers;filter:url(#filter12-3)"
         d="m 63.670878,193.88216 -4.427665,-9.02292 h 11.020516 l -0.006,0.0444 -3.090369,1.98781 h -4.730166 l 2.351675,4.76348 z"
         id="path2"
         sodipodi:nodetypes="cccccccc" /><path
         style="mix-blend-mode:normal;fill:#7dfcb7;fill-opacity:1;stroke:none;stroke-width:0.20713;paint-order:stroke fill markers;filter:url(#filter13-6)"
         d="m 69.054649,196.01053 4.68255,-9.16723 h 2.00569 l -6.672945,13.63219 -2.10251,-4.39615 -1.192695,2.35479 3.264616,6.62866 9.949954,-20.19005 h -6.59285 l -4.458051,9.08877 z"
         id="path3" /><path
         style="mix-blend-mode:normal;fill:#5ec7e5;fill-opacity:1;stroke:none;stroke-width:0.20713;paint-order:stroke fill markers;filter:url(#filter1)"
         d="m 87.990031,153.64636 1.334134,-1.34751 c 0,0 -1.297979,-0.42171 -1.882139,-0.73026 -0.590688,-0.312 -1.618834,-0.67443 -2.27164,-0.67443 -1.140684,0 -1.575865,-0.082 -2.383042,0.1343 -0.84515,0.22646 -1.3034,0.35398 -2.031737,0.83885 -0.6259,0.41668 -0.993737,0.70753 -1.450679,1.30468 -0.473956,0.61942 -1.034482,1.9192 -1.034482,1.9192 h -2.07247 c 0,0 0.618928,-1.67574 1.124491,-2.40035 0.600692,-0.86095 1.35653,-1.53998 2.207831,-2.15428 0.684858,-0.4942 1.406167,-0.83282 2.209533,-1.09331 0.668768,-0.21687 1.468769,-0.34894 2.171325,-0.37464 0.864674,-0.0316 1.67882,7.6e-4 2.515381,0.22173 0.902142,0.2383 1.784605,0.6151 2.576542,1.10859 0.437449,0.2726 1.213148,0.95659 1.213148,0.95659 l 1.416413,-1.17857 c 0,0 -1.181247,-1.09307 -1.857376,-1.52119 -0.643377,-0.40738 -1.346636,-0.72392 -2.064284,-0.97864 -0.627953,-0.22286 -1.280206,-0.39608 -1.941966,-0.47401 -0.992169,-0.11693 -2.009895,-0.13888 -2.997032,0.0148 -0.976447,0.15202 -1.926857,0.48317 -2.828831,0.88688 -0.617541,0.27638 -1.208544,0.62516 -1.743179,1.03979 -0.72055,0.5588 -1.383955,1.20548 -1.941966,1.92667 -0.631799,0.81653 -1.169929,1.71988 -1.559683,2.67591 -0.30755,0.75439 -0.496204,1.56164 -0.596348,2.37011 -0.03439,0.27822 -0.05955,0.9275 -0.05955,0.9275 l 5.852982,-0.0216 c 0,0 0.367658,-2.10171 0.997359,-2.91162 0.529925,-0.68158 1.211124,-1.16108 2.167783,-1.41742 0.635075,-0.17013 1.635489,-0.22417 2.319941,-0.0413 0.921872,0.2464 2.609467,0.99347 2.609467,0.99347 z"
         id="path4-0"
         sodipodi:nodetypes="ccsssssccssssssccsssssssssccasscc"
         transform="matrix(1,0,0,0.94789517,2.9792846,45.361398)" /><path
         style="mix-blend-mode:normal;fill:#5ec7e5;fill-opacity:1;stroke:none;stroke-width:0.20713;paint-order:stroke fill markers;filter:url(#filter2)"
         d="m 87.143797,151.77548 2.09761,-2.06519 1.347024,1.34705 -2.195127,2.19513 z"
         id="path5-6"
         transform="matrix(1,0,0,0.94789517,2.9792846,45.361398)" /><path
         style="mix-blend-mode:normal;fill:#5ec7e5;fill-opacity:1;stroke:none;stroke-width:0.20713;paint-order:stroke fill markers;filter:url(#filter3)"
         d="m 87.143797,151.77548 2.09761,-2.06519 1.347024,1.34705 -2.195127,2.19513 z"
         id="path7-2"
         transform="matrix(1,0,0,0.94789517,2.9792846,45.361398)" /><path
         style="mix-blend-mode:normal;fill:#5ec7e5;fill-opacity:1;stroke:none;stroke-width:0.20713;paint-order:stroke fill markers;filter:url(#filter14-9)"
         d="m 87.990031,153.64636 1.334134,-1.34751 c 0,0 -1.297979,-0.42171 -1.882139,-0.73026 -0.590688,-0.312 -1.618834,-0.67443 -2.27164,-0.67443 -1.140684,0 -1.575865,-0.082 -2.383042,0.1343 -0.84515,0.22646 -1.3034,0.35398 -2.031737,0.83885 -0.6259,0.41668 -0.993737,0.70753 -1.450679,1.30468 -0.473956,0.61942 -1.034482,1.9192 -1.034482,1.9192 h -2.07247 c 0,0 0.618928,-1.67574 1.124491,-2.40035 0.600692,-0.86095 1.35653,-1.53998 2.207831,-2.15428 0.684858,-0.4942 1.406167,-0.83282 2.209533,-1.09331 0.668768,-0.21687 1.468769,-0.34894 2.171325,-0.37464 0.864674,-0.0316 1.67882,7.6e-4 2.515381,0.22173 0.902142,0.2383 1.784605,0.6151 2.576542,1.10859 0.437449,0.2726 1.213148,0.95659 1.213148,0.95659 l 1.416413,-1.17857 c 0,0 -1.181247,-1.09307 -1.857376,-1.52119 -0.643377,-0.40738 -1.346636,-0.72392 -2.064284,-0.97864 -0.627953,-0.22286 -1.280206,-0.39608 -1.941966,-0.47401 -0.992169,-0.11693 -2.009895,-0.13888 -2.997032,0.0148 -0.976447,0.15202 -1.926857,0.48317 -2.828831,0.88688 -0.617541,0.27638 -1.208544,0.62516 -1.743179,1.03979 -0.72055,0.5588 -1.383955,1.20548 -1.941966,1.92667 -0.631799,0.81653 -1.169929,1.71988 -1.559683,2.67591 -0.30755,0.75439 -0.496204,1.56164 -0.596348,2.37011 -0.03439,0.27822 -0.05955,0.9275 -0.05955,0.9275 l 5.852982,-0.0216 c 0,0 0.367658,-2.10171 0.997359,-2.91162 0.529925,-0.68158 1.211124,-1.16108 2.167783,-1.41742 0.635075,-0.17013 1.635489,-0.22417 2.319941,-0.0413 0.921872,0.2464 2.609467,0.99347 2.609467,0.99347 z"
         id="path20"
         sodipodi:nodetypes="ccsssssccssssssccsssssssssccasscc"
         transform="matrix(0.99987973,0,0,-0.94805717,3.0126536,344.61502)" /><path
         style="mix-blend-mode:normal;fill:#5ec7e5;fill-opacity:1;stroke:none;stroke-width:0.20713;paint-order:stroke fill markers;filter:url(#filter15-2)"
         d="m 87.143797,151.77548 2.09761,-2.06519 1.347024,1.34705 -2.195127,2.19513 z"
         id="path21"
         transform="matrix(0.99987973,0,0,-0.94805717,3.0126536,344.61502)" /><path
         style="mix-blend-mode:normal;fill:#5ec7e5;fill-opacity:1;stroke:none;stroke-width:0.20713;paint-order:stroke fill markers;filter:url(#filter17-0)"
         d="m 87.143797,151.77548 2.09761,-2.06519 1.347024,1.34705 -2.195127,2.19513 z"
         id="path22"
         transform="matrix(0.99987973,0,0,-0.94805717,3.0126536,344.61502)" /></g><g
       inkscape:label="Layer 1"
       id="layer1-3"
       transform="translate(290.7434,-122.48512)"><g
         inkscape:label="Layer 1"
         id="layer1-2"
         transform="translate(1124.5887,703.94746)"><text
           xml:space="preserve"
           style="font-weight:bold;font-size:88.1944px;font-family:'DejaVu Sans';-inkscape-font-specification:'DejaVu Sans Bold';fill:#666666;stroke:#666666;stroke-width:0.264583"
           x="-987.57458"
           y="-522.90442"
           id="text3"><tspan
             sodipodi:role="line"
             id="tspan3"
             style="stroke-width:0.264583"
             x="-987.57458"
             y="-522.90442" /></text><text
           xml:space="preserve"
           style="font-weight:bold;font-size:9.02332px;font-family:'DejaVu Sans';-inkscape-font-specification:'DejaVu Sans Bold';fill:#7dfcb7;fill-opacity:0.9;stroke-width:0.264583"
           x="-883.94403"
           y="-615.17059"
           id="text1"><tspan
             sodipodi:role="line"
             id="tspan1"
             style="font-style:normal;font-variant:normal;font-weight:bold;font-stretch:normal;font-family:AkrutiMal2;-inkscape-font-specification:'AkrutiMal2 Bold';fill:#000000;fill-opacity:0.9;stroke-width:0.264583"
             x="-883.94403"
             y="-615.17059" /></text></g></g><g
       inkscape:label="Layer 1"
       id="layer1-8"
       transform="translate(381.11751,-138.96028)"><g
         inkscape:label="Layer 1"
         id="layer1-2-8"
         transform="translate(1124.5887,703.94746)"><text
           xml:space="preserve"
           style="font-weight:bold;font-size:88.1944px;font-family:'DejaVu Sans';-inkscape-font-specification:'DejaVu Sans Bold';fill:#666666;stroke:#666666;stroke-width:0.264583"
           x="-987.57458"
           y="-522.90442"
           id="text3-4"><tspan
             sodipodi:role="line"
             id="tspan3-3"
             style="stroke-width:0.264583"
             x="-987.57458"
             y="-522.90442" /></text><text
           xml:space="preserve"
           style="font-weight:bold;font-size:9.02332px;font-family:'DejaVu Sans';-inkscape-font-specification:'DejaVu Sans Bold';fill:#7dfcb7;fill-opacity:0.9;stroke-width:0.264583"
           x="-883.94403"
           y="-615.17059"
           id="text1-9"><tspan
             sodipodi:role="line"
             id="tspan1-2"
             style="font-style:normal;font-variant:normal;font-weight:bold;font-stretch:normal;font-family:AkrutiMal2;-inkscape-font-specification:'AkrutiMal2 Bold';fill:#000000;fill-opacity:0.9;stroke-width:0.264583"
             x="-883.94403"
             y="-615.17059" /></text></g></g></g></svg>
