<?xml version="1.0" encoding="UTF-8" standalone="no"?>
<!-- Created with Inkscape (http://www.inkscape.org/) -->

<svg
   width="481.37894mm"
   height="403.99979mm"
   viewBox="0 0 481.37897 403.99977"
   version="1.1"
   id="svg1"
   xml:space="preserve"
   inkscape:version="1.3.2 (091e20ef0f, 2023-11-25, custom)"
   sodipodi:docname="services_banner.svg"
   xmlns:inkscape="http://www.inkscape.org/namespaces/inkscape"
   xmlns:sodipodi="http://sodipodi.sourceforge.net/DTD/sodipodi-0.dtd"
   xmlns="http://www.w3.org/2000/svg"
   xmlns:svg="http://www.w3.org/2000/svg"><sodipodi:namedview
     id="namedview1"
     pagecolor="#ffffff"
     bordercolor="#000000"
     borderopacity="0.25"
     inkscape:showpageshadow="2"
     inkscape:pageopacity="0.0"
     inkscape:pagecheckerboard="0"
     inkscape:deskcolor="#d1d1d1"
     inkscape:document-units="mm"
     inkscape:zoom="0.088388348"
     inkscape:cx="-1114.4003"
     inkscape:cy="1385.9293"
     inkscape:window-width="1366"
     inkscape:window-height="724"
     inkscape:window-x="0"
     inkscape:window-y="332"
     inkscape:window-maximized="1"
     inkscape:current-layer="layer1" /><defs
     id="defs1"><filter
       inkscape:collect="always"
       style="color-interpolation-filters:sRGB"
       id="filter11-7"
       x="-0.0065455159"
       y="-0.0064122463"
       width="1.013091"
       height="1.0128245"><feGaussianBlur
         inkscape:collect="always"
         stdDeviation="0.053905323"
         id="feGaussianBlur11-5" /></filter><filter
       inkscape:collect="always"
       style="color-interpolation-filters:sRGB"
       id="filter12-3"
       x="-0.011739177"
       y="-0.014338238"
       width="1.0234784"
       height="1.0286765"><feGaussianBlur
         inkscape:collect="always"
         stdDeviation="0.053905323"
         id="feGaussianBlur12-5" /></filter><filter
       inkscape:collect="always"
       style="color-interpolation-filters:sRGB"
       id="filter13-6"
       x="-0.0097902134"
       y="-0.0064077491"
       width="1.0195804"
       height="1.0128155"><feGaussianBlur
         inkscape:collect="always"
         stdDeviation="0.053905323"
         id="feGaussianBlur13-2" /></filter><filter
       inkscape:collect="always"
       style="color-interpolation-filters:sRGB"
       id="filter14-9"
       x="-0.0075540629"
       y="-0.013373676"
       width="1.0151081"
       height="1.0267474"><feGaussianBlur
         inkscape:collect="always"
         stdDeviation="0.055365663"
         id="feGaussianBlur14-1" /></filter><filter
       inkscape:collect="always"
       style="color-interpolation-filters:sRGB"
       id="filter15-2"
       x="-0.038575242"
       y="-0.037512942"
       width="1.0771505"
       height="1.0750259"><feGaussianBlur
         inkscape:collect="always"
         stdDeviation="0.055365663"
         id="feGaussianBlur15-7" /></filter><filter
       inkscape:collect="always"
       style="color-interpolation-filters:sRGB"
       id="filter17-0"
       x="-0.038575242"
       y="-0.037512942"
       width="1.0771505"
       height="1.0750259"><feGaussianBlur
         inkscape:collect="always"
         stdDeviation="0.055365663"
         id="feGaussianBlur17-9" /></filter><filter
       inkscape:collect="always"
       style="color-interpolation-filters:sRGB"
       id="filter1"
       x="-0.0075542541"
       y="-0.013374015"
       width="1.0151085"
       height="1.026748"><feGaussianBlur
         inkscape:collect="always"
         stdDeviation="0.055367065"
         id="feGaussianBlur1" /></filter><filter
       inkscape:collect="always"
       style="color-interpolation-filters:sRGB"
       id="filter2"
       x="-0.038576218"
       y="-0.037513891"
       width="1.0771524"
       height="1.0750278"><feGaussianBlur
         inkscape:collect="always"
         stdDeviation="0.055367065"
         id="feGaussianBlur2" /></filter><filter
       inkscape:collect="always"
       style="color-interpolation-filters:sRGB"
       id="filter3"
       x="-0.038576218"
       y="-0.037513891"
       width="1.0771524"
       height="1.0750278"><feGaussianBlur
         inkscape:collect="always"
         stdDeviation="0.055367065"
         id="feGaussianBlur3" /></filter></defs><g
     inkscape:label="Layer 1"
     inkscape:groupmode="layer"
     id="layer1"
     transform="translate(282.72746,-80.573735)"><path
       style="fill:#333333;fill-opacity:1;stroke-width:0.765902"
       d="m -282.72746,80.573735 481.37894,0.0056 -0.003,403.994185 c 0,0 -2.08653,-124.84503 -172.481333,-266.59415 C -121.65424,95.008762 -282.72746,80.573735 -282.72746,80.573735 Z"
       id="path4"
       sodipodi:nodetypes="cccsc" /><circle
       style="fill:#333333;fill-opacity:1;stroke:none;stroke-width:0.154329"
       id="path12"
       cx="122.47971"
       cy="156.74623"
       r="76.171463" /><g
       inkscape:label="Layer 1"
       id="layer1-2"
       transform="translate(1124.5887,703.94746)"><text
         xml:space="preserve"
         style="font-weight:bold;font-size:88.1944px;font-family:'DejaVu Sans';-inkscape-font-specification:'DejaVu Sans Bold';fill:#666666;stroke:#666666;stroke-width:0.264583"
         x="-987.57458"
         y="-522.90442"
         id="text3"><tspan
           sodipodi:role="line"
           id="tspan3"
           style="stroke-width:0.264583"
           x="-987.57458"
           y="-522.90442" /></text><path
         style="mix-blend-mode:normal;fill:#7dfcb7;fill-opacity:1;stroke:none;stroke-width:0.20713;paint-order:stroke fill markers;filter:url(#filter11-7)"
         d="m -1130.4911,-571.49235 1.1326,-2.16788 -4.4871,-9.02835 h -6.5848 l 9.8825,20.17589 9.8826,-20.15966 -3.2816,2.00029 -6.5523,13.59656 -6.6001,-13.6166 h 1.9114 z"
         id="path1-6"
         transform="matrix(1.5886302,0,0,1.5886302,774.41415,319.96538)" /><path
         style="mix-blend-mode:normal;fill:#7dfcb7;fill-opacity:1;stroke:none;stroke-width:0.20713;paint-order:stroke fill markers;filter:url(#filter12-3)"
         d="m -1127.2609,-573.67645 -4.4277,-9.02292 h 11.0206 l -0.01,0.0444 -3.0904,1.98781 h -4.7302 l 2.3517,4.76348 z"
         id="path2-7"
         sodipodi:nodetypes="cccccccc"
         transform="matrix(1.5886302,0,0,1.5886302,774.41415,319.96538)" /><path
         style="mix-blend-mode:normal;fill:#7dfcb7;fill-opacity:1;stroke:none;stroke-width:0.20713;paint-order:stroke fill markers;filter:url(#filter13-6)"
         d="m -1121.8771,-571.54808 4.6825,-9.16723 h 2.0057 l -6.6729,13.63219 -2.1025,-4.39615 -1.1927,2.35479 3.2646,6.62866 9.9499,-20.19005 h -6.5928 l -4.4581,9.08877 z"
         id="path3-9"
         transform="matrix(1.5886302,0,0,1.5886302,774.41415,319.96538)" /><path
         style="mix-blend-mode:normal;fill:#5ec7e5;fill-opacity:1;stroke:none;stroke-width:0.20713;paint-order:stroke fill markers;filter:url(#filter1)"
         d="m 87.990031,153.64636 1.334134,-1.34751 c 0,0 -1.297979,-0.42171 -1.882139,-0.73026 -0.590688,-0.312 -1.618834,-0.67443 -2.27164,-0.67443 -1.140684,0 -1.575865,-0.082 -2.383042,0.1343 -0.84515,0.22646 -1.3034,0.35398 -2.031737,0.83885 -0.6259,0.41668 -0.993737,0.70753 -1.450679,1.30468 -0.473956,0.61942 -1.034482,1.9192 -1.034482,1.9192 h -2.07247 c 0,0 0.618928,-1.67574 1.124491,-2.40035 0.600692,-0.86095 1.35653,-1.53998 2.207831,-2.15428 0.684858,-0.4942 1.406167,-0.83282 2.209533,-1.09331 0.668768,-0.21687 1.468769,-0.34894 2.171325,-0.37464 0.864674,-0.0316 1.67882,7.6e-4 2.515381,0.22173 0.902142,0.2383 1.784605,0.6151 2.576542,1.10859 0.437449,0.2726 1.213148,0.95659 1.213148,0.95659 l 1.416413,-1.17857 c 0,0 -1.181247,-1.09307 -1.857376,-1.52119 -0.643377,-0.40738 -1.346636,-0.72392 -2.064284,-0.97864 -0.627953,-0.22286 -1.280206,-0.39608 -1.941966,-0.47401 -0.992169,-0.11693 -2.009895,-0.13888 -2.997032,0.0148 -0.976447,0.15202 -1.926857,0.48317 -2.828831,0.88688 -0.617541,0.27638 -1.208544,0.62516 -1.743179,1.03979 -0.72055,0.5588 -1.383955,1.20548 -1.941966,1.92667 -0.631799,0.81653 -1.169929,1.71988 -1.559683,2.67591 -0.30755,0.75439 -0.496204,1.56164 -0.596348,2.37011 -0.03439,0.27822 -0.05955,0.9275 -0.05955,0.9275 l 5.852982,-0.0216 c 0,0 0.367658,-2.10171 0.997359,-2.91162 0.529925,-0.68158 1.211124,-1.16108 2.167783,-1.41742 0.635075,-0.17013 1.635489,-0.22417 2.319941,-0.0413 0.921872,0.2464 2.609467,0.99347 2.609467,0.99347 z"
         id="path4-0"
         sodipodi:nodetypes="ccsssssccssssssccsssssssssccasscc"
         transform="matrix(1.5886302,0,0,1.5058549,-1112.8031,-827.33891)" /><path
         style="mix-blend-mode:normal;fill:#5ec7e5;fill-opacity:1;stroke:none;stroke-width:0.20713;paint-order:stroke fill markers;filter:url(#filter2)"
         d="m 87.143797,151.77548 2.09761,-2.06519 1.347024,1.34705 -2.195127,2.19513 z"
         id="path5-6"
         transform="matrix(1.5886302,0,0,1.5058549,-1112.8031,-827.33891)" /><path
         style="mix-blend-mode:normal;fill:#5ec7e5;fill-opacity:1;stroke:none;stroke-width:0.20713;paint-order:stroke fill markers;filter:url(#filter3)"
         d="m 87.143797,151.77548 2.09761,-2.06519 1.347024,1.34705 -2.195127,2.19513 z"
         id="path7-2"
         transform="matrix(1.5886302,0,0,1.5058549,-1112.8031,-827.33891)" /><path
         style="mix-blend-mode:normal;fill:#5ec7e5;fill-opacity:1;stroke:none;stroke-width:0.20713;paint-order:stroke fill markers;filter:url(#filter14-9)"
         d="m 87.990031,153.64636 1.334134,-1.34751 c 0,0 -1.297979,-0.42171 -1.882139,-0.73026 -0.590688,-0.312 -1.618834,-0.67443 -2.27164,-0.67443 -1.140684,0 -1.575865,-0.082 -2.383042,0.1343 -0.84515,0.22646 -1.3034,0.35398 -2.031737,0.83885 -0.6259,0.41668 -0.993737,0.70753 -1.450679,1.30468 -0.473956,0.61942 -1.034482,1.9192 -1.034482,1.9192 h -2.07247 c 0,0 0.618928,-1.67574 1.124491,-2.40035 0.600692,-0.86095 1.35653,-1.53998 2.207831,-2.15428 0.684858,-0.4942 1.406167,-0.83282 2.209533,-1.09331 0.668768,-0.21687 1.468769,-0.34894 2.171325,-0.37464 0.864674,-0.0316 1.67882,7.6e-4 2.515381,0.22173 0.902142,0.2383 1.784605,0.6151 2.576542,1.10859 0.437449,0.2726 1.213148,0.95659 1.213148,0.95659 l 1.416413,-1.17857 c 0,0 -1.181247,-1.09307 -1.857376,-1.52119 -0.643377,-0.40738 -1.346636,-0.72392 -2.064284,-0.97864 -0.627953,-0.22286 -1.280206,-0.39608 -1.941966,-0.47401 -0.992169,-0.11693 -2.009895,-0.13888 -2.997032,0.0148 -0.976447,0.15202 -1.926857,0.48317 -2.828831,0.88688 -0.617541,0.27638 -1.208544,0.62516 -1.743179,1.03979 -0.72055,0.5588 -1.383955,1.20548 -1.941966,1.92667 -0.631799,0.81653 -1.169929,1.71988 -1.559683,2.67591 -0.30755,0.75439 -0.496204,1.56164 -0.596348,2.37011 -0.03439,0.27822 -0.05955,0.9275 -0.05955,0.9275 l 5.852982,-0.0216 c 0,0 0.367658,-2.10171 0.997359,-2.91162 0.529925,-0.68158 1.211124,-1.16108 2.167783,-1.41742 0.635075,-0.17013 1.635489,-0.22417 2.319941,-0.0413 0.921872,0.2464 2.609467,0.99347 2.609467,0.99347 z"
         id="path20"
         sodipodi:nodetypes="ccsssssccssssssccsssssssssccasscc"
         transform="matrix(1.5884391,0,0,-1.5061123,-1112.75,-351.93557)" /><path
         style="mix-blend-mode:normal;fill:#5ec7e5;fill-opacity:1;stroke:none;stroke-width:0.20713;paint-order:stroke fill markers;filter:url(#filter15-2)"
         d="m 87.143797,151.77548 2.09761,-2.06519 1.347024,1.34705 -2.195127,2.19513 z"
         id="path21"
         transform="matrix(1.5884391,0,0,-1.5061123,-1112.75,-351.93557)" /><path
         style="mix-blend-mode:normal;fill:#5ec7e5;fill-opacity:1;stroke:none;stroke-width:0.20713;paint-order:stroke fill markers;filter:url(#filter17-0)"
         d="m 87.143797,151.77548 2.09761,-2.06519 1.347024,1.34705 -2.195127,2.19513 z"
         id="path22"
         transform="matrix(1.5884391,0,0,-1.5061123,-1112.75,-351.93557)" /><text
         xml:space="preserve"
         style="font-weight:bold;font-size:9.02332px;font-family:'DejaVu Sans';-inkscape-font-specification:'DejaVu Sans Bold';fill:#7dfcb7;fill-opacity:0.9;stroke-width:0.264583"
         x="-883.94403"
         y="-615.17059"
         id="text1"><tspan
           sodipodi:role="line"
           id="tspan1"
           style="font-style:normal;font-variant:normal;font-weight:bold;font-stretch:normal;font-family:AkrutiMal2;-inkscape-font-specification:'AkrutiMal2 Bold';fill:#000000;fill-opacity:0.9;stroke-width:0.264583"
           x="-883.94403"
           y="-615.17059" /></text><rect
         style="fill:#5ec7e5;fill-opacity:1;stroke-width:0.296438"
         id="rect6"
         width="53.829887"
         height="38.555321"
         x="-1028.5547"
         y="-547.91187"
         rx="4.0531006"
         ry="4.6152439" /><rect
         style="fill:#333333;fill-opacity:1;stroke-width:0.271525"
         id="rect7"
         width="49.203289"
         height="35.388828"
         x="-1026.3065"
         y="-546.08197"
         rx="1.7096394"
         ry="2.576107" /><rect
         style="fill:#7dfcb7;fill-opacity:1;stroke-width:0.169306"
         id="rect5"
         width="61.994743"
         height="10.920104"
         x="-1032.658"
         y="-514.32819"
         rx="1.2749307"
         ry="1.3071852" /><rect
         style="fill:#333333;fill-opacity:1;stroke-width:0.171054"
         id="rect8"
         width="59.171185"
         height="8.1691828"
         x="-1031.2061"
         y="-512.89734"
         ry="1.0139575" /><rect
         style="fill:#5ec7e5;fill-opacity:1;stroke-width:0.168339"
         id="rect3"
         width="35.0452"
         height="18.719553"
         x="-1049.3022"
         y="-535.88635"
         rx="1.2835855"
         ry="1.2835855" /><rect
         style="fill:#7dfcb7;fill-opacity:1;stroke-width:0.133776"
         id="rect4"
         width="29.808342"
         height="13.898687"
         x="-1046.6841"
         y="-533.50574"
         rx="1.0917773"
         ry="0.95302248" /><path
         style="fill:#333333;fill-opacity:1;stroke-width:0.168339"
         d="m -1037.5728,-529.57613 -3.0056,3.12463 3.0056,3.12464 -1.8153,1.84502 -4.4191,-4.5084 v -0.99691 l 4.434,-4.434 z"
         id="path1" /><path
         style="fill:#333333;fill-opacity:1;stroke-width:0.168341"
         d="m -1025.9372,-529.57613 3.0056,3.12463 -3.0056,3.12464 1.8153,1.84502 4.4192,-4.5084 v -0.99691 l -4.4341,-4.434 z"
         id="path2" /><path
         style="fill:#333333;fill-opacity:1;stroke-width:0.168339"
         d="m -1035.6321,-521.65546 5.3724,-10.7998 2.2989,1.27961 -5.4161,10.69072 z"
         id="path3" /><path
         style="fill:#5ec7e5;fill-opacity:1;stroke-width:0.182846"
         d="m -1005.3421,-557.23064 -0.011,-2.49129 c 0,0 0.4657,-0.92789 1.0971,-1.09707 0.6314,-0.16917 6.54818,-0.0342 6.54818,-0.0342 0,0 1.1085,0.26284 1.13707,1.13706 0.0286,0.87424 0.0172,2.45129 0.0172,2.45129 0,0 2.0913,0.70853 2.20558,0.87994 0.1143,0.17142 2.0913,-1.78275 2.0913,-1.78275 h 1.31421 l 4.95929,5.03424 c 0,0 0.29091,0.63029 0.11308,0.88887 -0.17778,0.25859 -2.03634,2.11714 -2.03634,2.11714 l 0.99795,2.40483 h 2.7427 c 0,0 0.68567,0.31998 0.73139,0.68567 0.0457,0.3657 0.0228,6.71959 0.0228,6.71959 0,0 -0.2606,1.34132 -1.06867,1.37364 -0.80806,0.0324 -2.48886,-0.0161 -2.48886,-0.0161 l -0.92119,2.37574 1.69694,1.79393 c 0,0 0.25857,1.11513 0.0161,1.50301 -0.24242,0.38787 -4.94541,4.83228 -4.94541,4.83228 0,0 -0.9212,0.11308 -1.06664,-0.0161 -0.14546,-0.12934 -1.9717,-1.87474 -1.9717,-1.87474 l -2.39191,0.93738 -0.0324,2.66663 c 0,0 -0.61411,0.96969 -1.01815,0.98585 -0.40405,0.0161 -6.83632,0 -6.83632,0 0,0 -0.4849,-0.2101 -0.7919,-0.67878 -0.3071,-0.46868 -0.1616,-2.98988 -0.1616,-2.98988 l -2.2626,-0.8727 -1.9555,1.82624 c 0,0 -1.0021,0.0646 -1.3333,-0.0485 -0.3314,-0.11308 -4.889,-4.78379 -4.889,-4.78379 0,0 -0.1939,-0.98584 0.032,-1.38988 0.2263,-0.40404 1.7778,-1.7616 1.7778,-1.7616 l -0.9212,-2.47271 -2.5859,-0.0161 c 0,0 -0.9373,-0.79189 -0.9535,-1.2121 -0.016,-0.4202 0.016,-6.30297 0.016,-6.30297 0,0 0.4363,-1.16362 0.9536,-1.16362 0.517,0 2.5212,-0.0161 2.5212,-0.0161 l 1.0182,-2.44038 -1.5515,-1.72927 c 0,0 -0.3072,-1.27676 0.2585,-1.84242 0.5657,-0.56565 4.3798,-4.4444 4.3798,-4.4444 0,0 0.7595,-0.32323 1.2928,0.0809 0.5334,0.40404 1.794,1.69696 1.794,1.69696 z"
         id="path11" /><path
         style="fill:#333333;fill-opacity:1;stroke-width:0.0914229"
         d="m -1002.4508,-529.96615 v -1.23661 l -0.409,-0.409 c -0.4204,-0.42041 -1.7436,-0.49691 -2.6292,-0.87093 -1.2418,-0.52442 -1.0982,-1.18369 -3.0454,-1.18369 -0.1694,0 -0.3481,0.34407 -0.8751,0.87685 -0.3981,0.40225 -0.928,0.77271 -0.981,0.77271 -0.1263,0 -1.8785,-1.89809 -1.8785,-2.02405 0,-0.053 0.4282,-0.47463 0.8305,-0.87259 0.6403,-0.63359 0.6861,-0.71491 0.7596,-0.98887 0.2326,-0.86803 0.013,-1.15796 -1.0326,-2.92618 -1.0455,-1.76822 -0.085,-3.06592 -2.6676,-3.06592 h -1.2367 v -1.46278 -1.46277 h 1.7053 c 1.785,0 1.5014,-1.6967 2.071,-3.06712 0.6285,-1.51148 2.1181,-2.33647 0.4406,-3.81245 -0.4248,-0.37379 -0.9143,-0.91555 -0.9143,-0.96863 0,-0.12598 1.893,-2.00424 2.0188,-2.00424 0.052,0 0.5761,0.48627 0.9736,0.88896 1.48,1.49898 2.3925,0.12396 3.997,-0.48562 0.9481,-0.36019 1.9897,-0.35929 2.464,-0.83357 l 0.409,-0.409 v -1.23661 -1.23662 h 1.4627 1.46283 v 1.23662 c -0.15967,2.02533 1.11286,1.73913 2.99453,2.59309 1.06143,0.48312 1.60011,1.16427 2.63189,1.16427 0.16933,0 0.78322,-0.25576 1.31029,-0.78852 0.39797,-0.40227 0.90412,-0.90281 0.9572,-0.90281 0.12598,0 1.99119,1.94523 1.99119,2.07118 0,0.0531 -0.46839,0.46566 -0.86852,0.86578 -1.79244,1.79245 -0.29291,2.17215 0.32846,3.66766 0.63973,1.53969 0.023,3.25763 2.58323,3.25763 h 1.23663 v 1.46277 1.46278 c 0,0 -2.09533,-0.0329 -2.47084,0.13713 -0.81768,0.37024 -0.95501,1.76008 -1.33796,2.74607 -0.45204,1.16389 -1.50489,2.5948 -1.15089,2.94501 0.15711,0.15543 0.408,0.67835 0.69484,1.0346 0.44754,0.55583 0.93623,0.97255 0.93623,1.00489 0,0.12598 -1.79412,2.0009 -1.92009,2.0009 -0.053,0 -0.55139,-0.45841 -0.94934,-0.86067 -0.52708,-0.53278 -0.77864,-0.76979 -0.94798,-0.77179 -1.51604,-0.0179 -1.88351,0.66341 -3.00153,1.13948 -1.35215,0.57575 -1.94724,0.21164 -3.01734,1.31605 v 1.23661 1.23662 h -1.46283 -1.4627 z"
         id="path10"
         sodipodi:nodetypes="ccsssssssszccccssssssssccccccsssssssccccssssssssscccccc" /><circle
         style="fill:#7dfcb7;fill-opacity:1;stroke-width:0.229151"
         id="circle10"
         cx="-1001.0338"
         cy="-543.35718"
         r="8.8223162" /><circle
         style="fill:#333333;fill-opacity:1;stroke-width:0.168598"
         id="path8"
         cx="-1000.9881"
         cy="-543.40289"
         r="6.4910316" /></g></g></svg>
